{"title":"Tharai Thappattai 2016 Movies HD TS XviD Clean Audio New B3STY","uid":13231734,"size":739448065,"categoryP":"video","categoryS":"movies","magnet":"?xt=urn:btih:4f8023786ef9d111663a8365baf175cbbe4c2fce&amp;dn=Tharai+Thappattai+2016+Movies+HD+TS+XviD+Clean+Audio+New+B3STY&amp;tr=udp%3A%2F%2Ftracker.leechers-paradise.org%3A6969&amp;tr=udp%3A%2F%2Fzer0day.ch%3A1337&amp;tr=udp%3A%2F%2Fopen.demonii.com%3A1337&amp;tr=udp%3A%2F%2Ftracker.coppersurfer.tk%3A6969&amp;tr=udp%3A%2F%2Fexodus.desync.com%3A6969","seeders":0,"leechers":1,"uploader":"basicssom","files":2,"time":1452955076,"description":"----------------------------------------------------------------\r\nTharai Thappattai 2016 Tamil Movies HD TS XviD AAC Clean Audio New Source with Sample B3STY\r\n\r\nSCREEN SHOTS &amp; POSTER:\r\n  \nhttp://doctorhosts.com/2016/1/TharaiThappattai/11.html  \nhttp://doctorhosts.com/2016/1/TharaiThappattai/1.html  \nhttp://doctorhosts.com/2016/1/TharaiThappattai/2.html  \nhttp://doctorhosts.com/2016/1/TharaiThappattai/3.html  \nhttp://doctorhosts.com/2016/1/TharaiThappattai/4.html  \nhttp://doctorhosts.com/2016/1/TharaiThappattai/5.html  \nhttp://doctorhosts.com/2016/1/TharaiThappattai/6.html  \nhttp://doctorhosts.com/2016/1/TharaiThappattai/7.html  \nhttp://doctorhosts.com/2016/1/TharaiThappattai/8.html  \nhttp://doctorhosts.com/2016/1/TharaiThappattai/9.html  \nhttp://doctorhosts.com/2016/1/TharaiThappattai/10.html\r\n\r\nFormat                                   : Matroska\r\nFormat version                           : Version 4 / Version 2\r\nFile size                                : 698 MiB\r\nDuration                                 : 2h 4mn\r\nOverall bit rate                         : 784 Kbps\r\nMovie name                               : Tharai Thappattai 2016 Tamil Movies HD TS XviD AAC Clean Audio New Source B3STY\r\n\r\nVideo\r\nID                                       : 1\r\nFormat                                   : AVC\r\nFormat/Info                              : Advanced Video Codec\r\nFormat profile                           :   \r\nFormat settings, CABAC                   : Yes\r\nFormat settings, ReFrames                : 4 frames\r\nCodec ID                                 : V_MPEG4/ISO/AVC\r\nDuration                                 : 2h 4mn\r\nBit rate                                 : 686 Kbps\r\nWidth                                    : 608 pixels\r\nHeight                                   : 256 pixels\r\nDisplay aspect ratio                     : 2.40:1\r\nFrame rate mode                          : Constant\r\nFrame rate                               : 29.970 fps\r\nColor space                              : YUV\r\nChroma subsampling                       : 4:2:0\r\nBit depth                                : 8 bits\r\nScan type                                : Progressive\r\nBits/(Pixel*Frame)                       : 0.147\r\nStream size                              : 599 MiB (86%)\r\nTitle                                    : B3STY\r\nWriting library                          : XviD\r\nLanguage                                 : Tamil\r\nSource                                   : tamilrockers\r\nDefault                                  : Yes\r\nForced                                   : Yes\r\n\r\nAudio\r\nID                                       : 2\r\nFormat                                   : MPEG Audio\r\nFormat version                           : Version 1\r\nFormat profile                           : Layer 3\r\nMode                                     : Joint stereo\r\nMode extension                           : MS Stereo\r\nCodec ID                                 : A_MPEG/L3\r\nCodec ID/Hint                            : MP3\r\nDuration                                 : 2h 4mn\r\nBit rate mode                            : Constant\r\nBit rate                                 : 96.0 Kbps\r\nChannel(s)                               : 2 channels\r\nSampling rate                            : 48.0 KHz\r\nCompression mode                         : Lossy\r\nStream size                              : 85.5 MiB (12%)\r\nTitle                                    : B3STY\r\nWriting library                          : LAME3.98r\r\nEncoding settings                        : -m j -V 4 -q 3 -lowpass 15.1 -b 96\r\nLanguage                                 : Tamil\r\nDefault                                  : Yes\r\nForced                                   : Yes\r\n\r\nIMDB                                      \nhttp://www.imdb.com/title/tt5340516/","torrent":{"xt":"urn:btih:4f8023786ef9d111663a8365baf175cbbe4c2fce","amp;dn":"Tharai+Thappattai+2016+Movies+HD+TS+XviD+Clean+Audio+New+B3STY","amp;tr":["udp%3A%2F%2Ftracker.leechers-paradise.org%3A6969","udp%3A%2F%2Fzer0day.ch%3A1337","udp%3A%2F%2Fopen.demonii.com%3A1337","udp%3A%2F%2Ftracker.coppersurfer.tk%3A6969","udp%3A%2F%2Fexodus.desync.com%3A6969"],"infoHash":"4f8023786ef9d111663a8365baf175cbbe4c2fce","infoHashBuffer":{"type":"Buffer","data":[79,128,35,120,110,249,209,17,102,58,131,101,186,241,117,203,190,76,47,206]},"announce":[],"urlList":[]}}